<svg viewBox="0 0 512 512" xml:space="preserve" xmlns="http://www.w3.org/2000/svg"><path d="M261 505.8H109c-1.7 0-3.3-.1-5 0-4.4.3-5.9-1.5-5.9-6.2.2-60.5.1-121 .1-181.5 0-4.2.3-8.4-.1-12.5-.3-3.9 1.3-4.8 4.9-4.7 7.8.2 15.7.4 23.5 0 4.9-.3 5.7 1.7 5.6 6-.1 43.7-.1 87.3-.1 131 0 9.5.2 19-.1 28.5-.2 4.5 1.1 5.9 5.8 5.9 42.7-.2 85.3-.1 128-.1h117c6.4 0 6.4 0 6.4-6.6 0-53 0-106-.1-159 0-4.2.8-5.9 5.4-5.7 7.6.4 15.3.4 23 0 4.5-.2 5.5 1.2 5.5 5.6-.2 48.2-.1 96.3-.1 144.5 0 16.3-.2 32.7.1 49 .1 4.7-1.4 5.9-6 5.9-52-.2-104-.1-155.9-.1zM414 18.8c-.5-2.5 1-3.3 3.3-3.7 11.1-1.9 22.3-3.7 33.3-5.8 4.3-.8 4.7 1.7 5.2 4.6 3 17.3 6 34.7 9 52 7.3 41.7 14.5 83.4 21.8 125.1 1.9 10.8 1.9 10.9-9 12.8-8.8 1.5-17.8 2.6-26.5 4.5-3.6.8-4.4-.5-4.9-3.3-2.7-15.9-5.5-31.8-8.2-47.6-4.8-27.8-9.6-55.6-14.5-83.4l-9.3-52.5c-.1-.9-.1-1.7-.2-2.7z" fill="#363636" class="fill-a8a8a8"></path><path d="M328.5 50.2c2.2.3 2.6 2.2 3.5 3.5 16.4 24.1 32.8 48.1 49.2 72.2 18.5 27.1 36.9 54.2 55.5 81.2 2.3 3.4 2.2 5.1-1.4 7.4-9.2 6-18.3 12.2-27.2 18.6-3 2.1-4.2.9-5.8-1.5-12.5-18.5-25-36.9-37.6-55.4-22.3-32.7-44.6-65.5-67.2-98.1-3.1-4.4-2.2-6.1 1.9-8.6 8.7-5.5 17.1-11.5 25.7-17.3 1.2-.7 2.4-1.4 3.4-2zM171.7 325.9c20.9 2 41.7 4 62.6 5.9 15.4 1.4 30.8 2.7 46.2 4.2 20.2 1.9 40.4 3.9 60.5 5.7 5.5.5 10.9.9 16.4 1.3 2.1.1 3.3.6 3 3.3-1.2 11.7-2.4 23.5-3.3 35.3-.2 3-1.5 3.6-4.1 3.4-19.5-1.9-39-3.9-58.5-5.7-16.4-1.5-32.8-2.8-49.2-4.3-20-1.8-40-3.8-60-5.6-6-.5-11.9-1-17.9-1.4-3.9-.3-6-1.4-5.5-6.1 1.3-10.9 2.2-21.8 3.1-32.8.5-5.5 4.4-2.3 6.7-3.2zM397.7 241.5c-.5.9-1 2-1.6 3-5.6 9.5-11.2 18.9-16.7 28.4-1.5 2.6-2.8 4-6.2 2-53.7-31.8-107.4-63.5-161.2-95.1-3.5-2-3.7-3.4-1.6-6.7 5.7-9 11-18.2 16.3-27.5 1.9-3.4 3.5-4 7-1.9 24.1 14.4 48.4 28.6 72.6 42.9 29.5 17.4 59 34.8 88.5 52.3 1.1.6 2.6.9 2.9 2.6zM257.7 439c-30.8 0-61.6-.1-92.4.1-4 0-5.5-.9-5.4-5.2.3-10.6.2-21.3 0-32-.1-3.6.7-4.9 4.6-4.9 62.3.1 124.6.1 186.8 0 3.4 0 4.7.8 4.6 4.4-.2 11-.2 22 0 33 .1 3.9-1.4 4.7-4.9 4.6-31-.1-62.2 0-93.3 0zM186 238.4c14.2 3.8 27.8 7.3 41.5 11 46.5 12.5 93 25.1 139.6 37.6 6.7 1.8 6.6 1.7 4.8 8.1-2.6 9.4-5.6 18.8-7.6 28.4-1 5.1-2.8 5.5-7.3 4.3-48.6-13.2-97.2-26.2-145.8-39.3-11.2-3-22.4-6.2-33.7-9.1-3.1-.8-4.1-1.9-3.2-5.1 3.1-11 5.9-22.2 8.9-33.2.4-1.6.8-3.5 2.8-2.7z" fill="#b5b5b5" class="fill-a7a7a7"></path></svg>